<?xml version="1.0" encoding="UTF-8"?>
<svg id="Layer_1" data-name="Layer 1" xmlns="http://www.w3.org/2000/svg" viewBox="0 0 395.64 394.79">
  <defs>
    <style>
      .cls-1 {
        fill: #fff;
      }
    </style>
  </defs>
  <path class="cls-1" d="M172.66,187.34c11.6-5.44,20.1-15.06,22.27-27.68,2.26-13.13,2.98-26.07,3.05-39.43.05-9.66-3.07-18.29-10.92-24.19-6.78-5.1-14.71-9.09-23.31-11.05-18.6-4.24-37.1-5.67-55.99-8.18-5.49-.73-37.69-3.56-34.03-14.44,1.2-3.55,6.61-5.5,10.61-5.84,37.14-3.14,73.25-2.67,110.83-2.31l149.65,1.42c11.67.11,22.45-2.56,32.88-6.24,10.34-3.65,16.28-11.79,17.62-22.43,1.16-9.21-2.26-17.57-11.14-21.98-6.57-3.27-14.34-4.34-22.15-4.38l-100.65-.61L101.49.56c-10.17.04-19.08,1.1-28.9,2.22-15.98,1.83-31.43,5.52-45.44,13.18C-2.73,32.31-3.52,62.99,3.96,92.68c10.19,40.47,70.21,31.14,99.81,41.31,1.88.65,3.31,2.12,2.85,3.85-.26.96-1.71,1.96-3.3,2.46-17.29,5.45-35.2,5.61-53.43,4.23-11.45-.87-38.51-5.81-45.09,8.6-5.81,12.71-7.03,37.22,13.56,42.6,14.52,3.8,28.87,5.62,44.13,5.75,31.46.27,82.27-1.03,110.19-14.14ZM330.05,195.21c16.74,3.18,34.16,2.96,50.71-.96,6.91-1.64,12.17-7.53,12.85-14.65,3.09-32.76,2.73-65.3-1.6-97.98-1.46-11.01-9.09-18.35-20.46-19.56-16.02-1.7-32.91-1.34-48.87.88-8.56,1.19-13.84,6.74-13.65,14.95l.46,19.44c.12,5.19-1.58,9.39-6.43,10.15-3.47.55-8.99-.29-9.81-4.8-1.53-8.48-.32-17.01-1-25.62-1.53-19.38-38.16-15.62-50.77-15.16-8.94.33-17.36.4-26.13,2.61-9.71,2.45-15.32,11-14,21.63,3.12,25.14,5.97,50.27,1.44,75.36l-4.2,23.25c-3.55,19.64,57.67,15.46,68.01,14.38,30.86-3.23,8.6-40.44,33.9-46.24,13.66-3.13-4.05,35.94,29.54,42.31ZM236.29,394.65l90.37.14c11.91.02,61.46-1.49,66.74-12.26,2.82-5.75,1.76-13.42.66-19.47-3.08-17.03-26.18-17.65-40.03-16.74l-62.81,4.16c-23.3,1.54-45.73,1.54-68.79-.61-8.06-.75-15.72-3.62-21.41-9.09-5.17-4.97-6.66-11.89-7.07-19.01-1.22-20.78.34-41.07,2.13-61.92,1.16-13.53,3.15-26.45,1.39-40.12-.79-6.19-7.35-10.53-13.51-11.2-15.99-1.75-32.18-2-47.8.89-10.78,1.99-16.84,9.86-19.02,19.79l-9.42,42.97c-1.04,4.74-1.75,9.41-5.9,13.52-1.64-16.88-2.72-32.83-5.41-49.04-2.64-15.89-13.16-26.93-29.28-28.19-13.19-1.03-25.42-2.14-39.06-.46-6.53.81-18.45,4.27-18.53,12.88l-.77,85.37c-.26,29.36-6.71,48.08-6.49,74.72.06,7.42,4.51,12.72,12.29,13.35,12.85,1.06,25.96-.69,38.52-4.05,15.84-4.24,13.37-19.7,12.53-34.5-1.09-19.23-2.73-37.89-.69-57.48,5.11,4.74,4.91,10.83,5.99,16.45,4.34,22.63,1.31,39.26,4.46,58.22,2.06,12.4,11.5,17.7,23.06,16,30.56-4.51,25.8-29.97,27.83-54.89.87-10.64,2.72-20.67,6.2-31.4,2.86,5.85,2.72,11.91,3.17,18.23.84,11.63.66,23.01,2.27,34.63,6.01,43.37,67.31,39.06,98.37,39.11ZM348.58,339.91c9.5-.55,37.27-2.88,42.03-9.4,3.86-5.29,3.73-13.19,1.25-18.96-1.71-3.98-6.13-5.83-10.33-5.7l-69.64,2.22c-5.63.18-10.65.54-16.83-.34,1.65-3.11,4.42-4.26,7.38-5.76l76.35-38.7c10.71-5.43,15.67-12.98,16.6-24.81.84-10.63-1.5-20.45-12.24-25.45-6.37-2.97-13.52-4.24-21.17-4.33l-100.48-1.25c-11.55-.14-53.88-2.64-57.53,9.89-2.56,8.8-2.54,18.04-1.85,26.86.49,6.27,5.05,9.88,11.1,10.68,26.21,2.33,53.79-4.24,81.22-2.27-12.65,10.97-25.91,18.33-39.84,25.15-13.16,6.44-26.9,9.69-40.84,14.03-4.99,1.55-10.35,4.08-11.6,9.74-1.99,9.06-3.46,19.21-.69,28.32,4.89,16.08,57.63,15.26,71.52,14.45l75.56-4.38Z"/>
</svg>
